<?xml version="1.0" standalone="no"?>
<!DOCTYPE svg PUBLIC "-//W3C//DTD SVG 20010904//EN"
 "http://www.w3.org/TR/2001/REC-SVG-20010904/DTD/svg10.dtd">
<svg version="1.0" xmlns="http://www.w3.org/2000/svg"
 width="1024.000000pt" height="1024.000000pt" viewBox="0 0 1024.000000 1024.000000"
 preserveAspectRatio="xMidYMid meet">

<g transform="translate(0.000000,1024.000000) scale(0.100000,-0.100000)"
fill="#000000" stroke="none">
<path d="M0 5120 l0 -5120 5120 0 5120 0 0 5120 0 5120 -5120 0 -5120 0 0
-5120z m5400 2354 c388 -50 731 -178 1065 -398 287 -189 554 -453 742 -734 90
-134 213 -390 267 -554 51 -152 99 -376 117 -545 16 -159 7 -470 -19 -588 -62
-288 -238 -503 -457 -560 -111 -28 -218 -14 -335 45 l-60 30 0 -74 c0 -375
-266 -802 -795 -1274 -194 -173 -416 -358 -554 -461 -149 -111 -168 -123 -101
-65 30 26 134 126 231 223 282 283 416 469 488 680 88 255 85 481 -7 698 -82
194 -316 490 -613 778 -74 71 -127 124 -118 117 17 -12 49 -7 49 9 0 21 -25
59 -42 65 -10 3 -32 3 -48 -1 -28 -6 -29 -5 -28 29 2 45 -15 64 -81 93 -67 30
-163 97 -153 108 4 5 1 5 -6 1 -6 -4 -24 1 -40 12 -15 11 -45 29 -67 41 -22
11 -34 21 -26 21 10 0 10 6 -3 28 l-17 27 19 -22 c11 -12 48 -38 83 -58 35
-20 79 -47 98 -61 42 -30 55 -30 80 -3 18 19 27 21 73 15 29 -4 68 -17 87 -29
19 -11 31 -15 26 -7 -10 17 42 -19 234 -163 190 -142 312 -216 507 -305 305
-139 401 -233 461 -447 25 -89 27 -116 27 -250 0 -130 -4 -163 -26 -245 -15
-52 -25 -96 -24 -97 1 -2 19 37 39 85 143 351 123 695 -57 945 -61 87 -201
217 -301 283 -92 60 -238 131 -375 184 -47 18 -146 61 -220 95 -74 35 -157 73
-185 86 -27 12 -79 40 -114 61 -38 23 -76 38 -95 38 -33 0 -51 11 -76 44 -10
13 -10 17 -2 12 7 -4 12 -2 12 8 0 8 12 24 26 35 21 16 30 18 49 9 24 -11 52
-69 41 -87 -3 -5 16 -18 42 -29 56 -24 243 -37 263 -18 9 8 10 7 4 -3 -6 -10
-2 -11 15 -6 17 5 21 4 15 -5 -5 -8 -4 -11 3 -6 9 6 132 -36 337 -116 105 -41
278 -127 379 -190 112 -69 199 -141 352 -289 195 -189 287 -240 435 -241 91
-1 177 33 230 89 l34 36 -41 -27 c-59 -39 -138 -53 -208 -37 -134 30 -229 103
-404 310 -58 69 -123 145 -144 168 -21 23 -36 48 -33 55 7 20 -62 67 -123 84
-55 16 -137 78 -126 95 3 5 0 9 -6 9 -6 0 -8 4 -5 10 8 13 67 -41 61 -56 -3
-7 2 -10 13 -7 10 2 35 -3 56 -11 l38 -16 -7 31 c-5 27 -4 30 9 19 8 -7 15
-18 15 -24 1 -6 19 -27 42 -46 40 -35 72 -67 203 -207 169 -181 354 -276 503
-259 99 12 169 54 223 134 l32 47 -29 -26 c-80 -73 -155 -79 -274 -23 -52 24
-89 49 -106 71 -21 27 -32 33 -63 33 -41 0 -96 34 -85 52 4 7 2 8 -4 4 -7 -4
-22 13 -39 44 -60 111 -83 141 -119 156 -31 13 -42 27 -80 109 -46 98 -71 125
-116 125 -23 0 -36 13 -88 90 -33 49 -60 93 -60 98 0 5 -11 19 -25 32 -14 13
-23 26 -20 28 3 3 17 -5 32 -19 14 -13 23 -18 19 -11 -4 6 -5 12 -2 12 12 0
79 -52 132 -101 31 -30 61 -53 66 -51 5 1 7 -2 4 -7 -6 -8 21 -71 30 -71 3 0
2 5 -1 10 -3 6 -1 10 6 10 6 0 9 -8 6 -20 -4 -14 1 -25 14 -33 10 -6 19 -17
19 -24 0 -7 5 -13 11 -13 5 0 7 -5 3 -12 -4 -6 -3 -8 4 -4 5 3 20 -10 32 -29
12 -19 26 -35 31 -35 5 0 9 -4 9 -9 0 -6 19 -27 41 -48 23 -21 66 -62 97 -90
30 -29 58 -50 62 -48 4 3 11 -2 14 -10 4 -12 2 -13 -13 -5 -24 12 -47 -11 -36
-37 13 -28 14 -44 4 -37 -5 3 -7 9 -5 13 3 4 -1 8 -9 8 -17 0 -6 -18 30 -49
30 -26 38 -22 32 17 -3 21 -2 33 3 30 6 -3 7 1 4 9 -4 9 -1 16 6 16 6 0 14 -9
17 -20 5 -20 33 -29 33 -10 0 6 5 10 11 10 5 0 8 -4 4 -9 -3 -5 8 -9 25 -9 24
1 42 -9 76 -43 43 -43 47 -44 108 -44 51 0 70 5 103 27 23 15 51 42 64 60 l24
33 -34 -28 c-40 -34 -69 -41 -105 -28 -15 6 -37 11 -50 11 -24 0 -50 24 -88
80 -19 28 -30 34 -61 35 -60 3 -78 27 -112 148 -13 48 -22 62 -48 75 -56 30
-99 85 -149 190 -26 56 -54 105 -62 108 -8 3 -23 1 -34 -5 -15 -8 -24 -5 -46
17 -34 36 -34 62 0 62 35 0 21 18 -21 26 -30 5 -36 13 -61 72 -38 88 -80 150
-115 168 -19 9 -73 17 -146 21 l-116 6 -65 44 c-63 43 -192 91 -288 107 -55
10 -136 57 -175 104 -30 36 -35 38 -61 28 -23 -9 -30 -7 -43 9 -14 19 -15 32
-1 66 10 24 -25 35 -41 13 -11 -16 -13 -16 -13 -2 0 9 -7 23 -15 31 -8 8 -24
39 -35 69 -52 131 -78 156 -221 208 -139 50 -203 123 -232 263 -13 61 -53 144
-64 133 -3 -3 4 -29 16 -58 11 -29 25 -77 31 -106 23 -126 90 -213 210 -272
143 -70 161 -89 237 -240 34 -68 40 -111 23 -170 -7 -23 -7 -36 0 -38 6 -2 8
-7 5 -12 -3 -5 7 -18 22 -29 16 -11 34 -26 42 -33 8 -7 22 -16 30 -20 14 -6
14 -7 1 -7 -26 -1 -153 65 -195 102 -22 19 -62 74 -89 122 -56 102 -119 170
-165 179 -17 3 -45 9 -61 12 -45 8 -87 57 -130 151 -52 112 -73 139 -135 174
-50 28 -56 36 -80 100 -30 77 -52 103 -41 48 3 -19 20 -62 37 -96 23 -48 40
-69 73 -88 79 -46 103 -87 162 -274 l33 -105 -77 81 c-110 116 -157 136 -283
118 -54 -7 -56 -6 -85 25 -85 94 -89 97 -133 104 -37 6 -54 2 -98 -20 -38 -18
-53 -31 -49 -41 3 -8 6 -19 6 -24 0 -14 54 -11 87 6 23 12 37 13 57 5 28 -10
75 -58 76 -76 0 -23 101 -94 134 -94 20 0 86 -58 86 -76 0 -8 4 -14 9 -14 5 0
15 -16 22 -35 7 -19 16 -35 20 -35 4 0 11 -10 15 -22 4 -13 17 -37 30 -54 13
-17 24 -36 24 -42 0 -7 5 -12 10 -12 6 0 10 -8 10 -17 0 -10 9 -33 20 -51 11
-18 20 -39 20 -47 0 -8 6 -18 13 -22 14 -9 67 -88 67 -100 0 -20 103 -147 112
-138 2 3 2 -11 0 -30 -3 -26 1 -36 18 -45 13 -7 26 -8 33 -2 19 15 57 4 95
-26 110 -87 167 -122 218 -132 30 -6 54 -12 54 -13 0 -1 -48 -2 -107 -2 -126
0 -136 4 -280 105 -110 78 -215 177 -248 235 -12 22 -31 74 -40 115 -18 74
-20 77 -118 178 -65 67 -97 107 -93 117 3 8 1 15 -4 15 -5 0 -12 10 -15 23
-14 45 -56 86 -120 118 -61 30 -68 31 -105 20 -57 -17 -99 11 -100 66 -1 10
-20 32 -43 49 -69 50 -137 54 -292 14 -128 -33 -145 -33 -220 -5 -19 8 -19 7
1 -14 32 -34 88 -43 162 -26 69 16 142 20 142 7 0 -9 124 -32 174 -32 44 0 50
-19 20 -63 -13 -20 -24 -41 -24 -46 0 -6 -4 -11 -10 -11 -14 0 -12 -46 3 -57
6 -6 48 -13 92 -17 44 -4 87 -8 95 -9 8 -1 24 -11 36 -22 11 -11 36 -28 54
-38 46 -25 21 -42 -29 -20 -87 37 -142 51 -229 56 -56 4 -90 2 -87 -4 4 -5 -5
-9 -18 -9 -34 0 -132 -35 -186 -67 -102 -59 -157 -111 -228 -215 -88 -129
-135 -165 -230 -179 -43 -6 -77 -6 -95 0 -32 11 -35 4 -13 -38 21 -42 38 -43
69 -5 30 38 52 45 42 14 -21 -70 -24 -67 30 -35 27 16 57 38 67 49 11 12 26
20 34 18 11 -2 14 2 10 12 -3 8 -1 18 5 22 7 4 8 3 4 -4 -4 -7 -2 -12 3 -12 6
0 -4 -20 -22 -44 -17 -24 -49 -72 -71 -106 -21 -34 -66 -94 -100 -133 -35 -40
-82 -101 -105 -137 -23 -36 -31 -52 -19 -36 52 68 275 299 320 334 128 97 141
104 176 97 19 -3 43 -15 55 -25 20 -19 20 -20 1 -26 -62 -20 -151 -72 -198
-115 -30 -28 -89 -100 -130 -161 -68 -100 -74 -112 -58 -124 14 -10 21 -8 45
12 31 26 43 29 52 14 4 -6 10 -8 15 -5 5 3 -42 -47 -105 -111 -62 -64 -105
-114 -94 -111 18 5 24 -4 19 -28 -1 -5 30 21 68 59 76 75 94 88 129 92 22 2
22 1 -9 -42 -33 -46 -90 -102 -191 -187 -37 -31 -82 -87 -133 -165 -43 -64
-82 -124 -88 -132 -15 -22 37 25 113 100 36 36 84 79 106 95 22 16 42 32 45
35 3 3 37 29 77 58 105 78 159 88 267 52 32 -11 63 -17 70 -14 6 3 0 -4 -14
-15 -14 -12 -56 -30 -95 -41 -224 -66 -300 -112 -476 -292 -138 -140 -139
-150 -16 -97 40 17 95 33 122 36 28 3 55 10 62 15 6 5 24 11 40 14 15 2 51 9
78 16 28 6 80 12 117 12 65 1 68 2 69 26 1 22 2 21 10 -7 10 -35 29 -42 49
-18 16 19 61 19 236 -1 216 -24 284 -45 284 -91 0 -15 32 -33 57 -32 13 1 11
3 -6 8 l-25 7 29 26 c22 20 32 24 42 16 7 -5 10 -14 7 -19 -3 -5 1 -6 9 -3 26
10 105 -16 228 -74 581 -275 890 -726 847 -1233 -16 -189 -65 -346 -178 -567
-133 -262 -314 -519 -483 -685 -60 -60 -111 -106 -114 -103 -3 3 21 36 54 73
206 235 395 536 514 818 167 395 172 691 16 1000 -104 207 -248 357 -522 542
-84 56 -175 108 -175 100 0 -2 24 -20 53 -39 134 -89 302 -281 372 -424 159
-328 155 -757 -12 -1238 -104 -299 -324 -688 -481 -848 -63 -65 -72 -60 -20
10 290 381 526 1006 545 1442 6 144 -4 277 -17 230 -29 -101 -163 -316 -279
-448 l-79 -89 -7 -84 c-31 -364 -163 -777 -335 -1048 -23 -35 -43 -61 -46 -59
-2 3 18 52 46 110 133 283 248 738 266 1053 l7 112 -135 -30 -134 -30 -126 41
c-619 200 -1089 664 -1294 1278 -175 523 -160 1062 42 1567 203 505 554 910
999 1153 496 271 975 366 1505 298z m-1423 -890 c-3 -3 -12 -4 -19 -1 -8 3 -5
6 6 6 11 1 17 -2 13 -5z m993 -269 c7 -8 8 -15 2 -15 -5 0 -15 7 -22 15 -7 8
-8 15 -2 15 5 0 15 -7 22 -15z m-725 -159 c16 -22 83 -44 141 -47 27 -1 65
-10 84 -20 51 -25 129 -97 136 -125 3 -13 10 -24 14 -24 11 0 53 -87 48 -100
-5 -17 -110 56 -152 105 -21 26 -53 55 -70 66 -34 21 -101 25 -154 9 -26 -7
-32 -6 -25 3 5 7 9 23 9 37 -1 19 -11 30 -46 47 l-44 23 -11 -32 c-14 -44 -49
-61 -86 -43 -44 23 -53 71 -19 105 18 18 30 20 92 17 51 -3 75 -9 83 -21z
m-340 -71 c-22 -13 -46 -25 -54 -25 -11 0 -9 -6 6 -22 11 -13 23 -31 26 -40 4
-12 14 -16 38 -13 20 3 41 -2 58 -14 46 -33 109 -61 138 -62 15 0 69 2 120 5
98 6 140 -3 168 -34 10 -11 23 -17 29 -13 6 3 8 2 3 -2 -8 -10 51 -75 68 -75
7 0 20 -9 30 -20 10 -11 24 -20 30 -20 7 0 18 -7 25 -15 7 -9 15 -13 18 -11 2
3 24 -10 47 -29 23 -19 48 -35 55 -35 7 0 11 -2 8 -5 -6 -7 74 -88 110 -112
13 -9 27 -24 33 -35 9 -17 4 -16 -43 8 -88 44 -208 132 -290 212 -42 42 -75
79 -72 84 3 4 0 9 -5 9 -17 2 -23 4 -75 28 -75 35 -146 37 -245 7 -102 -31
-141 -32 -197 -6 -44 22 -79 63 -69 80 4 6 -5 5 -19 -1 -20 -10 -30 -9 -50 4
-13 9 -27 25 -31 36 -6 20 -7 20 -63 -4 -31 -14 -49 -19 -40 -11 10 7 15 15
12 18 -3 4 1 6 8 5 7 0 22 1 33 2 17 1 18 3 5 11 -8 5 -10 10 -4 10 6 0 34 18
62 40 31 25 60 40 78 40 16 0 38 7 48 15 11 8 25 15 30 15 6 0 -7 -11 -29 -25z
m1150 -25 c10 -11 16 -20 13 -20 -3 0 -13 9 -23 20 -10 11 -16 20 -13 20 3 0
13 -9 23 -20z m492 -26 c-3 -3 -12 -4 -19 -1 -8 3 -5 6 6 6 11 1 17 -2 13 -5z
m40 -10 c-3 -3 -12 -4 -19 -1 -8 3 -5 6 6 6 11 1 17 -2 13 -5z m-472 -34 c10
-11 16 -20 13 -20 -3 0 -13 9 -23 20 -10 11 -16 20 -13 20 3 0 13 -9 23 -20z
m-1505 -73 c0 -2 -12 -14 -27 -28 l-28 -24 24 28 c23 25 31 32 31 24z m2815
-67 c21 -41 19 -44 -15 -18 -32 23 -40 48 -15 48 8 0 21 -13 30 -30z m-285
-61 c0 -11 -4 -17 -10 -14 -5 3 -10 13 -10 21 0 8 5 14 10 14 6 0 10 -9 10
-21z m-2220 -49 c121 -3 335 -21 375 -31 43 -12 107 -39 115 -49 3 -4 18 -10
34 -14 55 -14 20 -14 -49 0 -98 19 -174 17 -306 -7 -181 -33 -289 -14 -314 55
-12 34 10 55 53 50 15 -2 56 -4 92 -4z m-213 -92 c18 -7 33 -14 33 -18 0 -3
-33 -20 -74 -38 -41 -19 -93 -50 -116 -69 -22 -19 -44 -33 -47 -29 -4 3 -1 6
5 6 7 0 12 9 12 20 0 23 71 94 112 111 15 6 28 15 28 20 0 12 7 11 47 -3z
m488 -127 c22 -5 56 -13 75 -16 72 -12 280 -134 307 -179 5 -7 34 -27 67 -46
l59 -33 -28 -14 c-26 -14 -30 -13 -96 34 -133 93 -171 105 -264 83 -75 -17
-165 32 -150 81 4 10 2 27 -4 36 -9 16 -10 16 -11 2 -1 -44 -71 -56 -104 -18
-20 23 -25 24 -100 17 -86 -8 -112 -21 -166 -80 -24 -27 -48 -42 -75 -48 -70
-16 -105 6 -105 64 0 20 -4 24 -17 19 -38 -13 45 48 85 64 36 13 68 15 197 10
131 -4 156 -3 167 10 28 34 71 37 163 14z m-793 -153 c-7 -7 -12 -8 -12 -2 0
14 12 26 19 19 2 -3 -1 -11 -7 -17z m2918 -107 c-1 -14 -2 -14 -11 2 -5 9 -15
17 -21 17 -6 0 -5 -7 3 -17 13 -16 12 -17 -4 -4 -13 11 -15 17 -6 27 14 17 39
1 39 -25z m-2308 14 c30 -8 78 -27 104 -42 46 -26 119 -63 188 -95 29 -13 28
-13 -29 -16 -55 -3 -62 0 -124 42 -110 75 -167 80 -341 30 -71 -20 -92 -23
-116 -14 l-29 11 70 36 c136 68 176 75 277 48z m31 -150 c15 -4 27 -11 27 -17
0 -5 4 -7 8 -4 5 3 28 -1 52 -8 l44 -13 -79 -6 c-137 -12 -231 -9 -245 8 -7 8
-20 15 -29 15 -20 0 29 26 61 33 28 6 123 1 161 -8z m414 -51 c-3 -3 -12 -4
-19 -1 -8 3 -5 6 6 6 11 1 17 -2 13 -5z m-218 -66 c7 1 10 -2 6 -8 -3 -5 2
-10 12 -11 11 0 13 -3 5 -6 -22 -9 -52 27 -51 61 l2 31 6 -35 c4 -21 12 -34
20 -32z m489 -63 c11 -3 26 -13 34 -22 7 -9 -4 -6 -27 9 -22 14 -41 34 -42 44
-3 16 -1 15 6 -3 6 -12 19 -24 29 -28z m-580 -36 c55 -42 116 -72 171 -84 24
-5 37 -3 51 10 11 10 17 22 13 28 -3 6 -1 7 5 3 7 -4 12 -3 12 3 0 5 12 7 28
5 47 -9 107 -44 177 -105 38 -32 74 -59 80 -59 6 0 33 -14 61 -32 27 -17 104
-60 170 -94 142 -72 193 -104 332 -206 205 -152 309 -241 351 -303 143 -212
215 -504 182 -736 -39 -262 -206 -575 -484 -906 -78 -93 -305 -298 -407 -367
-8 -5 49 55 127 135 172 174 256 277 383 470 234 355 317 604 289 870 -33 331
-237 605 -668 901 -303 208 -568 320 -876 372 -103 17 -368 39 -465 38 -71 0
-202 -31 -264 -62 -22 -11 -42 -17 -44 -15 -3 2 12 12 32 21 20 10 36 21 36
25 0 11 128 57 185 66 28 5 64 6 80 2 17 -4 56 -7 89 -8 48 -1 68 4 113 30
105 60 157 60 241 -2z m-438 -148 c0 -10 -8 -22 -17 -25 -10 -4 -14 -4 -10 0
4 4 1 14 -6 23 -11 14 -10 14 6 2 15 -12 17 -11 17 3 0 9 2 16 5 16 3 0 5 -9
5 -19z m1484 -136 c66 -28 147 -101 271 -245 26 -30 58 -71 71 -90 13 -19 36
-51 51 -70 16 -19 -8 2 -52 46 -89 90 -220 201 -368 311 l-98 73 45 -6 c25 -3
61 -11 80 -19z"/>
<path d="M5120 7098 c0 -35 231 -357 314 -438 65 -63 76 -90 120 -303 14 -65
45 -89 114 -89 43 0 169 -36 196 -56 47 -35 266 -49 305 -20 9 7 13 9 9 4 -4
-4 -2 -13 3 -20 5 -6 23 -30 40 -53 22 -31 38 -43 56 -43 l26 0 -26 25 c-13
14 -35 41 -48 60 -13 20 -33 37 -44 40 -11 2 -33 7 -50 10 -19 4 -56 34 -105
85 -75 78 -75 78 -180 110 -170 53 -198 72 -231 159 -25 69 -67 114 -140 151
-66 34 -142 113 -265 277 -47 62 -87 113 -89 113 -3 0 -5 -5 -5 -12z"/>
<path d="M5683 7018 c3 -9 41 -70 85 -135 43 -65 92 -143 110 -174 36 -64 86
-118 128 -139 97 -48 132 -78 159 -137 43 -91 87 -138 162 -174 76 -36 121
-80 165 -161 30 -56 57 -86 165 -183 41 -37 58 -62 83 -126 20 -48 42 -87 57
-97 67 -47 81 -63 92 -109 15 -58 55 -129 81 -143 10 -5 28 -10 39 -10 15 0
22 -9 27 -35 3 -19 10 -32 16 -29 6 4 7 -8 2 -31 -5 -30 -4 -36 6 -30 10 6 12
4 7 -9 -8 -21 20 -79 33 -71 6 4 4 18 -5 35 -11 21 -45 177 -45 206 0 2 -12 4
-28 4 -15 0 -38 7 -51 16 -31 22 -71 110 -71 157 0 32 -8 46 -50 88 -36 36
-50 58 -50 78 0 50 -29 127 -75 196 -34 53 -50 69 -69 70 -38 1 -82 50 -107
116 -41 111 -80 149 -170 164 -56 9 -84 37 -135 135 -50 98 -72 117 -164 143
-97 28 -137 62 -238 204 -87 122 -172 219 -159 181z"/>
<path d="M4022 6828 c-16 -16 -16 -79 1 -101 15 -21 89 -37 111 -25 9 5 16 15
16 23 0 16 -34 38 -43 28 -3 -3 -9 8 -12 23 -3 16 -10 36 -14 44 -10 20 -43
24 -59 8z"/>
<path d="M5400 6805 c0 -8 5 -15 11 -15 5 0 7 5 4 10 -3 6 -2 10 4 10 5 0 11
-5 13 -12 2 -6 10 -8 16 -4 18 11 4 26 -24 26 -15 0 -24 -6 -24 -15z"/>
<path d="M3435 6480 c-35 -14 -48 -37 -41 -74 10 -54 32 -64 103 -50 26 5 37
1 59 -21 l26 -27 -36 -25 c-21 -13 -35 -30 -33 -36 7 -22 38 -19 60 7 12 14
43 32 68 39 26 8 87 38 137 68 49 30 104 62 122 72 18 10 31 20 28 22 -7 7
-129 -24 -187 -47 -45 -18 -58 -19 -85 -10 -18 7 -45 12 -61 12 -19 0 -42 13
-71 40 -45 41 -55 45 -89 30z"/>
<path d="M6281 6458 c1 -17 3 -18 6 -5 5 19 28 23 36 7 3 -6 4 -5 3 2 -1 7
-12 14 -24 16 -17 3 -22 -1 -21 -20z"/>
<path d="M3568 6130 c-27 -61 -22 -86 11 -56 10 9 22 16 28 16 5 0 16 11 23
25 13 23 12 28 -11 50 l-24 25 -27 -60z"/>
<path d="M7010 6101 c0 -6 4 -13 10 -16 6 -3 7 1 4 9 -7 18 -14 21 -14 7z"/>
<path d="M3519 6043 c-13 -16 -12 -17 4 -4 16 13 21 21 13 21 -2 0 -10 -8 -17
-17z"/>
<path d="M3160 5921 c0 -13 50 -51 66 -51 26 0 14 18 -26 39 -22 11 -40 17
-40 12z"/>
<path d="M7190 5641 c0 -39 13 -81 25 -81 25 0 35 66 13 88 -18 18 -38 14 -38
-7z"/>
<path d="M3203 5593 c-24 -5 -30 -18 -13 -28 16 -10 50 5 50 21 0 8 -3 13 -7
13 -5 -1 -18 -4 -30 -6z"/>
<path d="M6882 5379 c-29 -26 -28 -37 5 -50 19 -7 29 -6 37 2 8 8 8 13 0 16
-7 2 -10 12 -7 22 7 28 -11 33 -35 10z"/>
<path d="M3329 5313 c-13 -16 -12 -17 4 -4 16 13 21 21 13 21 -2 0 -10 -8 -17
-17z"/>
<path d="M3076 5287 c-78 -31 -79 -31 -110 -13 l-31 18 24 -26 c14 -14 34 -26
45 -26 25 0 141 53 150 69 9 14 15 15 -78 -22z"/>
<path d="M5588 5191 l-33 -29 24 -26 c13 -14 40 -31 59 -37 32 -11 37 -10 54
11 25 31 23 75 -4 94 -33 24 -64 19 -100 -13z"/>
<path d="M6210 5216 c0 -2 8 -10 18 -17 15 -13 16 -12 3 4 -13 16 -21 21 -21
13z"/>
<path d="M7140 5184 c9 -2 31 -33 49 -67 19 -34 41 -70 49 -79 21 -25 84 -23
113 3 l24 21 -25 -16 c-13 -9 -37 -16 -52 -16 -23 0 -29 7 -47 55 -12 31 -21
62 -21 70 0 18 -7 22 -60 28 -25 3 -38 4 -30 1z"/>
<path d="M7372 5164 c-7 -8 -8 -14 -3 -14 10 0 25 19 20 25 -2 1 -10 -3 -17
-11z"/>
<path d="M3010 5053 c-8 -2 -22 -7 -30 -9 -13 -5 -13 -6 0 -14 22 -14 28 -12
40 10 6 11 9 20 8 19 -2 0 -10 -3 -18 -6z"/>
<path d="M3068 5053 c7 -3 16 -2 19 1 4 3 -2 6 -13 5 -11 0 -14 -3 -6 -6z"/>
<path d="M3202 4992 c-64 -64 -115 -122 -108 -122 6 0 127 120 155 153 28 35
-1 15 -47 -31z"/>
<path d="M3063 4883 c-3 -10 -8 -21 -10 -25 -2 -5 -1 -8 4 -8 4 0 13 11 20 25
6 14 7 25 2 25 -5 0 -12 -8 -16 -17z"/>
<path d="M3820 4636 c0 -16 7 -27 20 -31 27 -9 40 1 40 31 0 20 -5 24 -30 24
-25 0 -30 -4 -30 -24z"/>
<path d="M5877 4318 c162 -153 256 -356 285 -615 20 -176 -13 -386 -87 -548
-19 -41 -30 -73 -26 -70 14 8 146 225 183 300 173 348 112 703 -149 872 -39
25 -241 113 -259 113 -2 0 22 -24 53 -52z"/>
<path d="M4489 5777 c33 -35 56 -52 32 -24 -6 8 -9 17 -6 20 3 4 2 5 -2 2 -3
-3 -18 5 -32 17 -14 13 -10 6 8 -15z"/>
</g>
</svg>
